<svg width="30" height="35" viewBox="0 0 30 35" fill="none" xmlns="http://www.w3.org/2000/svg">
<path d="M6.42857 0C5.25 0 4.28571 0.964286 4.28571 2.14286V32.1429C4.28571 33.3214 5.25 34.2857 6.42857 34.2857H27.8571C29.0357 34.2857 30 33.3214 30 32.1429V8.57143L21.4286 0H6.42857Z" fill="#E2E5E7"/>
<path d="M23.5714 8.57143H30L21.4286 0V6.42857C21.4286 7.60714 22.3929 8.57143 23.5714 8.57143Z" fill="#B0B7BD"/>
<path d="M30 15L23.5714 8.57143H30V15Z" fill="#CAD1D8"/>
<path d="M25.7143 27.8571C25.7143 28.4464 25.2321 28.9286 24.6429 28.9286H1.07143C0.482143 28.9286 0 28.4464 0 27.8571V17.1429C0 16.5536 0.482143 16.0714 1.07143 16.0714H24.6429C25.2321 16.0714 25.7143 16.5536 25.7143 17.1429V27.8571Z" fill="#F15642"/>
<path d="M4.67036 20.3004C4.67036 20.0175 4.89321 19.7089 5.25214 19.7089H7.23107C8.34536 19.7089 9.34821 20.4546 9.34821 21.8839C9.34821 23.2382 8.34536 23.9925 7.23107 23.9925H5.80071V25.1239C5.80071 25.5011 5.56071 25.7143 5.25214 25.7143C4.96929 25.7143 4.67036 25.5011 4.67036 25.1239V20.3004ZM5.80071 20.7879V22.9221H7.23107C7.80536 22.9221 8.25964 22.4154 8.25964 21.8839C8.25964 21.285 7.80536 20.7879 7.23107 20.7879H5.80071Z" fill="white"/>
<path d="M11.0261 25.7143C10.7432 25.7143 10.4346 25.56 10.4346 25.1839V20.3175C10.4346 20.01 10.7432 19.7861 11.0261 19.7861H12.9879C16.9029 19.7861 16.8171 25.7143 13.065 25.7143H11.0261ZM11.5661 20.8318V24.6696H12.9879C15.3011 24.6696 15.4039 20.8318 12.9879 20.8318H11.5661Z" fill="white"/>
<path d="M18.2057 22.2621H20.3904C20.6989 22.2621 21.0075 22.5707 21.0075 22.8696C21.0075 23.1525 20.6989 23.3839 20.3904 23.3839H18.2057V25.1829C18.2057 25.4829 17.9925 25.7132 17.6925 25.7132C17.3154 25.7132 17.085 25.4829 17.085 25.1829V20.3164C17.085 20.0089 17.3164 19.785 17.6925 19.785H20.7C21.0771 19.785 21.3 20.0089 21.3 20.3164C21.3 20.5907 21.0771 20.8993 20.7 20.8993H18.2057V22.2621Z" fill="white"/>
<path d="M24.6429 28.9286H4.28571V30H24.6429C25.2321 30 25.7143 29.5179 25.7143 28.9286V27.8571C25.7143 28.4464 25.2321 28.9286 24.6429 28.9286Z" fill="#CAD1D8"/>
</svg>
