<svg width="19" height="11" viewBox="0 0 19 11" fill="none" xmlns="http://www.w3.org/2000/svg">
<path d="M18.1014 0.903669L17.5111 0.299884C17.3254 0.111322 17.0782 0.00744145 16.814 0.00744145C16.55 0.00744145 16.3026 0.111322 16.1168 0.299884L9.38332 7.14021L2.64206 0.292294C2.45658 0.103732 2.20913 0 1.94512 0C1.68112 0 1.43352 0.103732 1.24789 0.292294L0.657468 0.892359C0.273032 1.28258 0.273032 1.91821 0.657468 2.30843L8.68375 10.491C8.86923 10.6794 9.11639 10.8122 9.38274 10.8122H9.38581C9.64997 10.8122 9.89713 10.6793 10.0826 10.491L18.1014 2.33061C18.2872 2.1422 18.3892 1.88354 18.3894 1.61535C18.3894 1.34702 18.2872 1.09193 18.1014 0.903669Z" fill="#54A8DD"/>
</svg>
